<svg width="508" height="508" viewBox="0 0 508 508" fill="none" xmlns="http://www.w3.org/2000/svg">
<g clip-path="url(#clip0_1_2)" filter="url(#filter0_d_1_2)">
<path d="M504 0H4V500H504V0Z" fill="white"/>
<path d="M434.53 409.572C482.02 373.462 503.17 273.332 426.06 224.232C375.01 191.732 343.26 210.272 285.83 188.772C215.72 162.532 205.27 83.252 119.99 122.262C74.81 142.922 43.49 201.152 37.98 267.332C32.58 332.142 55.55 376.612 102.49 407.042C212.72 411.732 323.17 410.882 434.53 409.572Z" fill="#C7C7C7"/>
<path d="M239.432 124.76C232.259 153.56 258.896 182.07 286.958 193.89C315.021 205.72 347.201 204.31 377.265 198.67C390.237 196.24 403.572 192.82 413.649 184.55C423.727 176.28 429.569 161.92 424.046 150.32C419.172 140.09 407.306 134.85 395.994 132.16C384.682 129.47 372.667 128.37 362.589 122.71C353.033 117.34 346.254 108.45 337.943 101.41C322.587 88.42 301.016 81.98 281.052 86.09C261.077 90.2 245.529 100.28 239.432 124.76Z" fill="#C7C7C7"/>
<path d="M454.295 257.226V235.438H446.033C445.041 231.629 443.528 228.037 441.59 224.728L447.432 218.877L432.024 203.469L426.173 209.311C422.865 207.373 419.273 205.861 415.463 204.868V196.607H393.675V204.868C389.866 205.861 386.274 207.373 382.965 209.311L377.114 203.469L361.706 218.877L367.548 224.728C365.61 228.036 364.107 231.628 363.105 235.438H354.844V257.226H363.105C364.107 261.035 365.61 264.627 367.548 267.936L361.706 273.787L377.114 289.195L382.965 283.353C386.273 285.291 389.865 286.794 393.675 287.796V296.057H415.463V287.796C419.272 286.794 422.864 285.291 426.173 283.353L432.024 289.195L447.432 273.787L441.59 267.936C443.528 264.628 445.04 261.036 446.033 257.226H454.295ZM404.576 265.209C394.148 265.209 385.693 256.754 385.693 246.326C385.693 235.909 394.148 227.455 404.576 227.455C414.993 227.455 423.447 235.909 423.447 246.326C423.447 256.755 414.993 265.209 404.576 265.209Z" fill="#7C7C7C"/>
<path d="M388.455 311.817L384.31 301.012L380.213 302.584C378.996 300.884 377.563 299.39 375.972 298.118L377.756 294.105L367.184 289.395L365.394 293.405C363.385 293.073 361.316 293.007 359.238 293.239L357.666 289.142L346.861 293.287L348.433 297.384C346.733 298.601 345.239 300.034 343.967 301.625L339.954 299.841L335.244 310.413L339.254 312.203C338.923 314.212 338.861 316.28 339.088 318.359L334.991 319.931L339.136 330.736L343.233 329.164C344.455 330.863 345.883 332.358 347.474 333.63L345.69 337.643L356.262 342.353L358.052 338.343C360.061 338.675 362.129 338.736 364.208 338.509L365.78 342.606L376.585 338.461L375.013 334.364C376.712 333.142 378.207 331.714 379.479 330.123L383.492 331.907L388.202 321.335L384.192 319.545C384.524 317.536 384.59 315.467 384.358 313.389L388.455 311.817ZM365.317 325.236C360.146 327.22 354.344 324.636 352.36 319.464C350.378 314.298 352.962 308.497 358.134 306.513C363.3 304.531 369.101 307.116 371.083 312.281C373.067 317.452 370.483 323.254 365.317 325.236Z" fill="#7C7C7C" stroke="#7C7C7C" stroke-miterlimit="10"/>
<path d="M353.053 273.917L350.252 266.616L347.484 267.678C346.662 266.529 345.693 265.52 344.618 264.66L345.823 261.948L338.679 258.766L337.469 261.476C336.111 261.252 334.713 261.207 333.309 261.364L332.247 258.596L324.946 261.397L326.008 264.165C324.859 264.987 323.85 265.956 322.99 267.03L320.278 265.825L317.096 272.969L319.806 274.179C319.582 275.537 319.54 276.934 319.694 278.339L316.926 279.401L319.727 286.702L322.495 285.64C323.321 286.788 324.286 287.798 325.361 288.658L324.156 291.37L331.3 294.552L332.51 291.842C333.868 292.066 335.265 292.108 336.67 291.954L337.732 294.722L345.033 291.921L343.971 289.153C345.119 288.328 346.129 287.362 346.988 286.288L349.7 287.493L352.882 280.349L350.172 279.139C350.396 277.781 350.441 276.383 350.284 274.979L353.053 273.917ZM337.419 282.983C333.925 284.323 330.005 282.577 328.664 279.083C327.325 275.592 329.071 271.673 332.565 270.332C336.055 268.993 339.975 270.739 341.314 274.23C342.656 277.724 340.909 281.644 337.419 282.983Z" fill="#7C7C7C" stroke="#7C7C7C" stroke-miterlimit="10"/>
<path d="M350.511 146.088C350.511 157.036 345.394 166.795 337.433 173.101C331.571 177.753 324.159 180.513 316.085 180.513C308.032 180.513 300.619 177.753 294.737 173.101C286.766 166.795 281.659 157.036 281.659 146.088C281.659 127.076 297.073 111.662 316.085 111.662C335.097 111.662 350.511 127.076 350.511 146.088Z" fill="#7C7C7C" stroke="#7C7C7C" stroke-miterlimit="10"/>
<path d="M317.474 145.95C323.651 145.188 328.04 139.562 327.278 133.386C326.515 127.209 320.89 122.821 314.713 123.583C308.536 124.345 304.146 129.97 304.909 136.147C305.671 142.323 311.297 146.712 317.474 145.95Z" fill="white"/>
<path d="M337.433 168.759C331.571 173.411 324.159 176.172 316.085 176.172C308.032 176.172 300.619 173.412 294.737 168.759C296.939 159.072 298.965 150.709 301.074 148.59C304.051 145.613 311.96 143.876 316.074 143.876C320.188 143.876 328.469 145.985 329.999 147.515C333.122 150.626 335.81 159.217 337.433 168.759Z" fill="white"/>
<path d="M266.61 230.952V213.952C266.61 209.312 270.37 205.552 275.01 205.552H328.57C333.21 205.552 336.97 209.312 336.97 213.952V230.952C336.97 235.592 333.21 239.352 328.57 239.352H275.02C270.38 239.362 266.61 235.592 266.61 230.952Z" fill="#7C7C7C"/>
<path d="M289.23 230.062L263.31 255.312L305.32 234.082" fill="#7C7C7C"/>
<path d="M273.11 213.532V213.442C273.11 212.752 273.67 212.192 274.36 212.192H300.84C301.53 212.192 302.09 212.752 302.09 213.442V213.532C302.09 214.222 301.53 214.782 300.84 214.782H274.36C273.67 214.782 273.11 214.222 273.11 213.532Z" fill="white"/>
<path d="M303.28 213.532V213.442C303.28 212.752 303.84 212.192 304.53 212.192H327.64C328.33 212.192 328.89 212.752 328.89 213.442V213.532C328.89 214.222 328.33 214.782 327.64 214.782H304.53C303.84 214.782 303.28 214.222 303.28 213.532Z" fill="white"/>
<path d="M293.19 219.222V219.132C293.19 218.442 293.75 217.882 294.44 217.882H327.64C328.33 217.882 328.89 218.442 328.89 219.132V219.222C328.89 219.912 328.33 220.472 327.64 220.472H294.44C293.75 220.472 293.19 219.912 293.19 219.222Z" fill="white"/>
<path d="M273.11 219.222V219.132C273.11 218.442 273.67 217.882 274.36 217.882H289.19C289.88 217.882 290.44 218.442 290.44 219.132V219.222C290.44 219.912 289.88 220.472 289.19 220.472H274.36C273.67 220.472 273.11 219.912 273.11 219.222Z" fill="white"/>
<path d="M297.8 224.912V224.822C297.8 224.132 298.36 223.572 299.05 223.572H327.64C328.33 223.572 328.89 224.132 328.89 224.822V224.912C328.89 225.602 328.33 226.162 327.64 226.162H299.05C298.36 226.162 297.8 225.602 297.8 224.912Z" fill="white"/>
<path d="M273.11 224.912V224.822C273.11 224.132 273.67 223.572 274.36 223.572H294.11C294.8 223.572 295.36 224.132 295.36 224.822V224.912C295.36 225.602 294.8 226.162 294.11 226.162H274.36C273.67 226.162 273.11 225.602 273.11 224.912Z" fill="white"/>
<path d="M273.11 230.602V230.512C273.11 229.822 273.67 229.262 274.36 229.262H281.69C282.38 229.262 282.94 229.822 282.94 230.512V230.602C282.94 231.292 282.38 231.852 281.69 231.852H274.36C273.67 231.852 273.11 231.292 273.11 230.602Z" fill="white"/>
<path d="M285.53 230.602V230.512C285.53 229.822 286.09 229.262 286.78 229.262H327.64C328.33 229.262 328.89 229.822 328.89 230.512V230.602C328.89 231.292 328.33 231.852 327.64 231.852H286.78C286.09 231.852 285.53 231.292 285.53 230.602Z" fill="white"/>
<path d="M134.409 206.887C142.127 190.302 134.938 170.601 118.353 162.884C101.768 155.167 82.0667 162.356 74.3495 178.941C66.6322 195.526 73.821 215.227 90.4061 222.944C106.991 230.661 126.692 223.472 134.409 206.887Z" fill="#7C7C7C"/>
<path d="M99.2251 216.744C103.407 215.275 105.607 210.694 104.138 206.512C102.669 202.33 98.0877 200.13 93.9055 201.599C89.7233 203.068 87.5238 207.65 88.9928 211.832C90.4617 216.014 95.0429 218.213 99.2251 216.744Z" fill="white"/>
<path d="M92.3491 212.051L91.9611 206.961L96.1761 204.081L100.778 206.29L101.165 211.38L96.9511 214.261L92.3491 212.051Z" fill="#7C7C7C"/>
<path d="M114.866 184.212C119.04 182.72 121.214 178.127 119.722 173.953C118.23 169.779 113.637 167.605 109.463 169.097C105.289 170.589 103.115 175.182 104.607 179.356C106.099 183.53 110.692 185.704 114.866 184.212Z" fill="white"/>
<path d="M108.192 179.054L108.468 172.582L113.345 168.319L117.947 170.529L117.671 177.001L112.793 181.263L108.192 179.054Z" fill="#7C7C7C"/>
<path d="M102.122 205.461L95.983 202.513L100.52 192.046C100.808 191.382 101.121 190.729 101.459 190.089L106.79 180.003L112.929 182.951L108.553 193.259C108.215 194.056 107.839 194.837 107.429 195.6L102.122 205.461Z" fill="white"/>
<path d="M127.374 210.734C128.557 210.185 147.56 211.052 147.56 211.052L133.862 198.476L127.374 210.734Z" fill="#7C7C7C"/>
<path d="M211.234 136.91C218.372 120.409 210.781 101.246 194.28 94.1089C177.78 86.9714 158.617 94.5618 151.48 111.062C144.342 127.563 151.933 146.726 168.433 153.863C184.934 161.001 204.097 153.41 211.234 136.91Z" fill="#7C7C7C"/>
<path d="M182.45 96.247H180.276V123.585H182.45V96.247Z" fill="white"/>
<path d="M157.342 139.368L158.579 141.155L181.362 125.385L180.125 123.598L157.342 139.368Z" fill="white"/>
<path d="M184.359 123.988C184.359 125.643 183.018 126.984 181.363 126.984C179.708 126.984 178.367 125.643 178.367 123.988C178.367 122.333 179.708 120.992 181.363 120.992C183.018 120.992 184.359 122.334 184.359 123.988Z" fill="white"/>
<path d="M269.74 344.412C267.81 314.652 280.83 283.852 302.76 266.232C303.44 296.142 290.55 326.412 269.74 344.412Z" fill="#7C7C7C"/>
<path d="M299.18 274.242C289.94 291.462 281.95 309.482 275.31 328.072C267.24 350.642 260.89 374.622 247.07 393.542" stroke="#636060" stroke-miterlimit="10" stroke-linecap="round"/>
<path d="M262.82 363.132C273.92 338.302 295.95 319.542 320.24 314.232C309.9 340.842 286.64 361.142 262.82 363.132Z" fill="#7C7C7C"/>
<path d="M314.28 319.702C297.69 334.302 280.82 348.492 263.67 362.262" stroke="#636060" stroke-miterlimit="10" stroke-linecap="round"/>
<path d="M256.27 384.762C271.1 362.612 298.46 351.052 321.1 357.372C304.45 379.242 277.03 390.832 256.27 384.762Z" fill="#7C7C7C"/>
<path d="M315.67 358.972C296.23 371.132 275.26 380.112 253.64 385.512" stroke="#636060" stroke-miterlimit="10" stroke-linecap="round"/>
<path d="M264.28 355.602C269.02 330.662 261.91 302.862 246.08 284.472C239.59 308.982 245.78 337.702 264.28 355.602Z" fill="#7C7C7C"/>
<path d="M247.71 290.832C250.83 314.032 256.38 335.762 264.98 357.002" stroke="#636060" stroke-miterlimit="10" stroke-linecap="round"/>
<path d="M256.14 376.842C254.12 351.202 240.98 327.122 221.76 313.832C222.87 327.412 226.48 340.502 232.21 352.402C238.8 366.072 248.48 374.742 256.14 376.842Z" fill="#7C7C7C"/>
<path d="M224.61 319.022C232.17 340.402 243.05 360.222 256.62 377.382" stroke="#636060" stroke-miterlimit="10" stroke-linecap="round"/>
<path d="M404.57 370.692C415.06 343.402 439.19 321.262 465.8 314.522C454.14 341.442 430.34 363.142 404.57 370.692Z" fill="#7C7C7C"/>
<path d="M459.35 320.192C444.13 331.762 429.67 344.552 416.19 358.402C399.81 375.222 384.36 393.982 364.39 405.202" stroke="#636060" stroke-miterlimit="10" stroke-linecap="round"/>
<path d="M390.78 384.542C410.77 366.952 437.93 359.232 461.57 364.412C441.53 383.902 412.65 392.492 390.78 384.542Z" fill="#7C7C7C"/>
<path d="M454.06 366.862C433.41 373.102 412.68 378.852 391.88 384.122" stroke="#636060" stroke-miterlimit="10" stroke-linecap="round"/>
<path d="M376.12 401.142C398.31 387.462 427.23 388.332 444.65 403.202C420.97 415.882 391.98 415.012 376.12 401.142Z" fill="#7C7C7C"/>
<path d="M439.2 402.402C417.04 405.302 394.81 404.742 373.5 400.732" stroke="#636060" stroke-miterlimit="10" stroke-linecap="round"/>
<path d="M395.16 378.432C409.57 358.152 414.68 330.482 408.23 307.642C392.44 326.822 386.14 354.932 395.16 378.432Z" fill="#7C7C7C"/>
<path d="M407.06 313.962C400.3 335.902 396.31 357.522 395.21 379.962" stroke="#636060" stroke-miterlimit="10" stroke-linecap="round"/>
<path d="M379.26 394.032C387.98 370.372 386.24 343.552 374.7 323.872C370.12 336.422 367.94 349.552 368.13 362.492C368.34 377.352 373.34 389.032 379.26 394.032Z" fill="#7C7C7C"/>
<path d="M375.08 329.652C373 351.782 374.49 373.882 379.45 394.702" stroke="#636060" stroke-miterlimit="10" stroke-linecap="round"/>
<path d="M107.267 322.978C96.573 290.269 66.73 263.84 32.013 256.34C46.609 284.637 73.082 307.158 107.267 322.978Z" fill="#7C7C7C"/>
<path d="M109.078 328.052C85.653 314.805 56.303 311.884 30.86 320.258C54.459 332.046 82.421 335.33 109.078 328.052Z" fill="#7C7C7C"/>
<path d="M115.557 335.145C90.24 331.636 63.728 337.877 43.167 352.182C66.482 360.657 94.453 355.161 115.557 335.145Z" fill="#7C7C7C"/>
<path d="M123.451 350.64C98.38 350.536 73.73 362.451 58.994 381.798C70.152 384.034 82.001 382.697 92.237 378.062C102.473 373.425 111.049 365.514 123.451 350.64Z" fill="#7C7C7C"/>
<path d="M141.126 376.565C116.405 372.327 90.065 379.987 72.24 396.602C82.88 400.643 94.793 401.289 105.678 398.418C116.564 395.548 126.365 389.173 141.126 376.565Z" fill="#7C7C7C"/>
<path d="M114.437 324.527C98.113 302.524 93.683 272.874 102.957 247.65C110.039 259.643 116.15 272.323 119.002 285.801C121.854 299.28 121.3 313.65 114.437 324.527Z" fill="#7C7C7C"/>
<path d="M124.41 345.756C120.544 322.379 128.537 297.603 145.42 280.673C147.363 304.858 139.963 329.496 124.41 345.756Z" fill="#7C7C7C"/>
<path d="M39.613 262.201C89.297 293.99 128.153 341.373 148.664 395.207" stroke="#636060" stroke-miterlimit="10" stroke-linecap="round"/>
<path d="M104.5 259.25C110.543 283.789 114.22 308.842 115.464 333.969" stroke="#636060" stroke-miterlimit="10" stroke-linecap="round"/>
<path d="M141.708 290.164C139.728 309.962 133.61 329.312 123.836 346.741" stroke="#636060" stroke-miterlimit="10" stroke-linecap="round"/>
<path d="M41.318 320.829C64.096 325.16 87.248 327.508 110.404 327.853" stroke="#636060" stroke-miterlimit="10" stroke-linecap="round"/>
<path d="M55.0439 350.237C76.0469 348.711 96.7099 343.623 115.81 335.265" stroke="#636060" stroke-miterlimit="10" stroke-linecap="round"/>
<path d="M67.627 378.266C87.007 368.599 106.389 358.92 125.769 349.253" stroke="#636060" stroke-miterlimit="10" stroke-linecap="round"/>
<path d="M80.232 395.337C105.535 390.455 113.053 384.629 141.136 376.567" stroke="#636060" stroke-miterlimit="10" stroke-linecap="round"/>
<path d="M240.42 348.992C240.42 348.992 242.61 369.062 245.06 370.672C249.44 373.562 300.14 380.242 300.14 380.242L298.48 393.432C298.48 393.432 229.04 399.672 226.09 396.202C220.97 390.182 211.97 361.142 211.97 361.142L240.42 348.992Z" fill="#E06A58"/>
<path d="M206.94 297.322L212.55 283.852C212.55 283.852 227.77 291.002 232.79 299.832C238.16 309.272 244.73 359.462 244.73 359.462C244.73 359.462 217.86 365.652 212.92 363.022C207.98 360.392 206.94 297.322 206.94 297.322Z" fill="#F2AE30"/>
<path d="M164.21 234.802C160.28 233.362 156.12 232.102 151.91 232.422C147.7 232.742 143.4 234.972 141.97 238.672C140.95 241.292 141.42 244.382 139.81 246.742C138.27 249.002 135.21 249.942 132.35 250.132C129.48 250.332 126.59 249.952 123.74 250.322C114.94 251.492 108.66 261.052 111.55 268.882C112.7 272.002 115.06 274.982 114.52 278.232C113.95 281.712 110.3 284.002 108.8 287.232C106.81 291.532 109.19 296.742 113.12 299.672C117.05 302.592 122.16 303.702 127.12 304.442C133.95 305.462 141 305.942 147.75 304.502C154.5 303.062 160.95 299.502 164.44 293.942C165.99 291.482 166.93 288.702 168.73 286.392C172.45 281.622 179.04 279.772 184.23 276.392C189.9 272.682 194.06 265.462 190.72 259.812C187.5 254.382 179.12 253.172 175.76 247.822C174.37 245.612 174.04 242.982 173.14 240.572C172.22 238.152 170.02 236.932 164.21 234.802Z" fill="#0A2240"/>
<path d="M187.11 301.412C188.1 302.552 189.27 303.802 190.89 303.912C192.6 304.032 194.03 302.822 195.13 301.652C200.81 295.642 204.56 288.262 206.08 280.652C204.67 279.852 203.31 279.082 202.08 278.362C200.94 277.682 200.08 276.732 199.59 275.622C199.25 274.802 199.13 273.942 199.22 273.042C200.02 265.522 200.73 261.332 203.37 253.702C190.83 250.872 179 247.512 172.2 241.832C171.37 245.332 170.39 252.182 168.3 258.972C166.07 266.162 162.59 273.272 156.69 276.332C168.27 283.172 178.6 291.672 187.11 301.412Z" fill="#F9A07B"/>
<path d="M199.22 273.052C199.13 273.952 199.25 274.822 199.59 275.632C192.17 284.632 175.58 272.872 168.3 258.982C170.39 252.192 171.37 245.342 172.2 241.842C178.99 247.522 190.83 250.892 203.37 253.712C200.73 261.342 200.02 265.522 199.22 273.052Z" fill="#E06A58"/>
<path d="M219.88 381.852C218.24 392.712 229.96 404.402 230.25 410.202C205.36 410.202 153.22 411.722 126.67 408.112C125.46 401.412 138.57 386.342 138.57 371.462C138.57 369.492 138.49 367.332 138.33 365.012C137.91 358.372 136.93 350.472 135.84 342.372C132.88 320.642 128.94 297.402 131.85 292.582C137.55 283.192 150.88 276.812 157.49 274.072C159.76 273.132 161.24 272.622 161.35 272.562C169.64 286.702 186.51 298.762 192.88 298.222C194.65 298.082 199.9 296.252 203.37 278.782C204.72 279.552 206.07 280.262 207.41 280.952C214 284.382 220.18 287.212 221.96 291.622C226.66 303.232 231.27 332.502 230.25 342.912C229.22 353.412 225 361.432 222.04 371.972C221.35 374.442 220.72 377.062 220.21 379.882C220.08 380.512 219.98 381.172 219.88 381.852Z" fill="#FFC73C"/>
<path d="M230.25 410.202C205.36 410.202 153.22 411.722 126.67 408.112C125.46 401.412 138.57 386.342 138.57 371.462C138.57 369.492 138.49 367.332 138.33 365.012C137.91 358.372 136.93 350.472 135.84 342.372C140.55 347.342 147.42 326.342 150.46 332.492C166.91 365.692 179.88 374.422 202.42 374.422C209.14 374.422 215.34 373.492 222.04 371.972C221.35 374.442 220.72 377.062 220.21 379.882C220.09 380.522 219.98 381.182 219.88 381.862C218.24 392.702 229.96 404.392 230.25 410.202Z" fill="#FFBB33"/>
<path d="M207.41 280.952C206.34 288.722 203.17 299.192 193.95 301.952C181.49 305.682 163.46 282.402 157.49 274.072C159.76 273.132 161.24 272.622 161.35 272.562C169.64 286.702 186.51 298.762 192.88 298.222C194.65 298.082 199.9 296.252 203.37 278.782C204.72 279.542 206.07 280.252 207.41 280.952Z" fill="#FCE172"/>
<path d="M212.53 398.512L212.44 407.182L367.44 408.102L367.76 398.272L212.53 398.512Z" fill="#325F73"/>
<path d="M434.62 321.162L431.17 317.662L318.27 316.922L261.63 398.832L264.59 401.212L434.62 321.162Z" fill="#325F73"/>
<path d="M320.45 319.952L264.59 401.212L371.29 401.742L434.62 321.162L320.45 319.952Z" fill="#0B2D50"/>
<path d="M347.41 371.822C354.269 371.822 359.83 369.042 359.83 365.612C359.83 362.182 354.269 359.402 347.41 359.402C340.551 359.402 334.99 362.182 334.99 365.612C334.99 369.042 340.551 371.822 347.41 371.822Z" fill="#3C738C"/>
<path d="M214.822 239.735C216.582 230.293 223.056 223.58 229.284 224.74C235.512 225.901 239.134 234.495 237.374 243.937C235.614 253.379 229.14 260.092 222.912 258.932C216.685 257.772 213.063 249.177 214.822 239.735Z" fill="#4E4E4E"/>
<path d="M237.39 214.302C236.23 222.522 232.56 231.582 227.21 241.592C225.33 233.392 224.13 223.402 222.47 213.412C220.78 203.402 218.63 193.392 214.9 185.212C214.06 183.402 213.15 181.672 212.16 180.072C214.37 179.862 216.61 180.072 218.74 180.662C222.07 181.552 225.19 183.272 227.74 185.572C231.98 189.342 234.82 194.482 236.51 199.902C237.9 204.402 238.15 209.182 237.39 214.302Z" fill="#0B2D50"/>
<path d="M231.11 222.802C231.05 224.422 230.94 226.072 230.79 227.712C228.51 254.312 217.34 272.562 200.25 272.562C176.12 272.562 160.48 245.502 160.48 218.992C160.48 192.842 176.5 173.912 195.25 176.102C206.06 177.342 213.96 180.932 219.57 186.192C223.28 189.692 225.96 193.922 227.79 198.732C229.88 204.122 230.89 210.222 231.1 216.792C231.1 216.812 231.12 216.832 231.12 216.852C231.2 218.792 231.18 220.772 231.11 222.802Z" fill="#F9A07B"/>
<path d="M231.11 222.802C230.39 220.232 229.32 217.722 227.86 215.472C213.63 222.912 196.67 225.782 180.59 223.062C177.53 225.612 174.54 228.122 171.53 230.632C171.59 218.532 171.76 210.342 176.48 204.482C180.91 198.982 188.3 196.912 195.3 196.012C203.18 194.982 211.19 195.022 219.05 196.162C222.06 196.582 225.18 197.232 227.8 198.752C229.89 204.142 230.9 210.242 231.11 216.812C231.11 216.832 231.13 216.852 231.13 216.872C231.2 218.792 231.18 220.772 231.11 222.802Z" fill="#E06A58"/>
<path d="M234.59 206.422C231.28 209.222 227.13 211.542 222.47 213.422C209.21 218.772 191.98 220.542 178.55 219.892C171.95 234.392 169.28 239.592 167.59 252.242C161.14 246.192 155.89 235.112 154.33 226.402C152.79 217.722 152.94 208.612 155.36 200.082C159.17 186.632 168.78 179.432 175.44 175.932C177.1 175.022 178.6 174.392 179.76 173.932C188.27 170.642 197.86 170.942 206.59 173.612C211.35 175.092 215.36 177.592 218.73 180.672C225.54 186.822 229.75 195.152 232.47 201.392C233.33 203.302 234.02 205.032 234.59 206.422Z" fill="#0B2D50"/>
<path d="M237.39 214.302C236.84 211.392 236.02 208.572 234.86 205.852C234.21 204.312 233.41 202.822 232.48 201.382C229.45 196.622 225.04 192.702 219.71 190.972C218.19 188.842 216.59 186.922 214.91 185.222C208.86 179.072 201.76 175.552 194.24 174.322C187.98 173.312 181.47 173.882 175.46 175.922C177.12 175.012 178.62 174.382 179.78 173.922C188.29 170.632 197.88 170.932 206.61 173.602C211.37 175.082 215.38 177.582 218.75 180.662C222.08 181.552 225.2 183.272 227.75 185.572C231.99 189.342 234.83 194.482 236.52 199.902C237.9 204.402 238.15 209.182 237.39 214.302Z" fill="#225570"/>
<path d="M186.24 230.612C190.7 228.062 195.33 226.912 201.82 229.282" stroke="#0B2D50" stroke-width="2" stroke-miterlimit="10" stroke-linecap="round"/>
<path d="M216.78 230.432C220.6 227.582 226.26 227.292 229.21 230.432" stroke="#0B2D50" stroke-width="2" stroke-miterlimit="10" stroke-linecap="round"/>
<path d="M212.17 244.972C212.56 246.992 212.35 251.462 211.39 253.472" stroke="#CC454E" stroke-width="2" stroke-miterlimit="10" stroke-linecap="round"/>
<path d="M197.1 246.332C198.116 246.332 198.94 245.034 198.94 243.432C198.94 241.83 198.116 240.532 197.1 240.532C196.084 240.532 195.26 241.83 195.26 243.432C195.26 245.034 196.084 246.332 197.1 246.332Z" fill="#262D40"/>
<path d="M221.15 244.982C222.166 244.982 222.99 243.684 222.99 242.082C222.99 240.48 222.166 239.182 221.15 239.182C220.134 239.182 219.31 240.48 219.31 242.082C219.31 243.684 220.134 244.982 221.15 244.982Z" fill="#262D40"/>
<path d="M209.89 257.422C209.89 257.422 209.53 258.122 208.84 259.072C207.76 260.522 205.92 262.522 203.41 263.302H203.4C202.34 263.642 201.19 263.762 199.91 263.532C196.15 262.862 195.16 259.392 194.98 256.722C194.94 256.202 194.94 255.722 194.95 255.282C194.97 254.202 195.09 253.482 195.09 253.482C201.08 256.782 209.89 257.422 209.89 257.422Z" fill="#CC454E"/>
<path d="M209.89 257.422C209.89 257.422 209.53 258.122 208.84 259.072C205.78 259.032 199.52 257.462 194.95 255.282C194.97 254.202 195.09 253.482 195.09 253.482C201.08 256.782 209.89 257.422 209.89 257.422Z" fill="white"/>
<path d="M203.4 263.292C202.34 263.632 201.19 263.752 199.91 263.522C196.15 262.852 195.16 259.382 194.98 256.712C196.8 256.932 198.56 257.632 200.02 258.742C201.55 259.912 202.72 261.502 203.4 263.292Z" fill="#E8729B"/>
<path d="M167.65 226.022C167.65 226.022 167.44 213.552 172.63 201.162C179.14 185.612 192.41 178.962 205.28 178.512C220.79 177.962 230.5 188.372 230.5 188.372C230.5 188.372 225.45 179.462 215.49 176.902C208.95 175.222 199.08 174.952 191.16 178.172C183 181.482 172.83 190.672 169.15 200.382C165.48 210.092 163.69 225.212 163.69 225.212L167.65 226.022Z" fill="#7C7C7C"/>
<path d="M167.384 258.482C174.025 257.792 178.561 249.074 177.515 239.012C176.468 228.949 170.237 221.351 163.596 222.042C156.955 222.732 152.419 231.449 153.465 241.512C154.511 251.575 160.743 259.172 167.384 258.482Z" fill="#4E4E4E"/>
<path d="M160.231 227.942C164.518 227.298 168.913 232.89 170.046 240.432C171.179 247.974 168.623 254.611 164.335 255.255C160.048 255.899 155.653 250.307 154.52 242.765C153.387 235.223 155.944 228.586 160.231 227.942Z" fill="#7C7C7C"/>
<path d="M173.03 255.512C173.03 255.512 182.49 267.672 198.94 268.922" stroke="#7C7C7C" stroke-width="2" stroke-miterlimit="10" stroke-linecap="round"/>
<path d="M205.38 272.932C208.937 272.932 211.82 271.137 211.82 268.922C211.82 266.707 208.937 264.912 205.38 264.912C201.823 264.912 198.94 266.707 198.94 268.922C198.94 271.137 201.823 272.932 205.38 272.932Z" fill="#636262"/>
<path d="M212.44 375.362L211.82 391.352C211.82 391.352 153.99 408.682 144.44 403.202C139.78 400.522 135.43 385.782 132.18 371.392C128.78 356.272 126.6 341.552 126.6 341.552L160.5 334.912C160.5 334.912 160.52 355.582 161.67 367.532C162.08 371.982 162.67 375.222 163.46 375.752C166.45 377.722 212.44 375.362 212.44 375.362Z" fill="#F9A07B"/>
<path d="M161.67 367.512C155.51 369.512 143.62 372.602 132.18 371.382C128.78 356.262 126.6 341.542 126.6 341.542L160.5 334.902C160.5 334.892 160.52 355.562 161.67 367.512Z" fill="#E06A58"/>
<path d="M210.79 375.522C219.39 373.682 233.95 369.262 239.99 367.742C244.28 366.662 255.45 372.442 258.4 377.892C259.69 380.272 260.91 393.752 256.44 392.362C254.2 391.662 254.57 385.882 253.87 383.522C253.3 381.602 251.48 379.742 248.71 378.142C250.56 382.752 250.49 386.772 250.29 391.752C250.25 392.852 250.18 394.002 249.65 394.952C249.11 395.902 247.95 396.582 246.95 396.162C245.93 395.742 245.58 394.472 245.35 393.362C244.56 389.522 243.76 385.682 243.44 381.342C243.52 385.612 243.43 389.892 243.16 394.152C242.96 397.412 241.34 399.202 239.35 398.632C238.46 398.382 238.1 397.562 237.72 396.482C237.12 398.572 235.62 400.882 233.68 400.002C232.5 399.472 231.77 395.212 231.98 390.832C228.26 393.142 224.06 394.122 219.22 394.342C214.88 394.542 210.44 393.732 207.83 390.782C208.09 386.172 209.61 379.352 210.79 375.522Z" fill="#F9A07B"/>
<path d="M237.81 395.822C238.1 392.362 237.8 388.852 236.92 385.512" stroke="#CC454E" stroke-miterlimit="10" stroke-linecap="round"/>
<path d="M156.69 301.372C154.23 294.442 145.22 280.262 145.22 280.262C145.22 280.262 131.47 285.982 126.59 295.692C118.33 312.132 122.53 359.332 122.53 359.332C133.66 363.992 156 364.062 165.51 362.722C165.51 362.722 161.62 315.222 156.69 301.372Z" fill="#FFC73C"/>
<path d="M158.44 304.272C162.19 322.222 164.2 338.962 164.84 355.362" stroke="#F2AE30" stroke-miterlimit="10" stroke-linecap="round"/>
<path d="M452.74 405.252H58.46V415.142H452.74V405.252Z" fill="#0B2D50"/>
</g>
<defs>
<filter id="filter0_d_1_2" x="0" y="0" width="508" height="508" filterUnits="userSpaceOnUse" color-interpolation-filters="sRGB">
<feFlood flood-opacity="0" result="BackgroundImageFix"/>
<feColorMatrix in="SourceAlpha" type="matrix" values="0 0 0 0 0 0 0 0 0 0 0 0 0 0 0 0 0 0 127 0" result="hardAlpha"/>
<feOffset dy="4"/>
<feGaussianBlur stdDeviation="2"/>
<feComposite in2="hardAlpha" operator="out"/>
<feColorMatrix type="matrix" values="0 0 0 0 0 0 0 0 0 0 0 0 0 0 0 0 0 0 0.25 0"/>
<feBlend mode="normal" in2="BackgroundImageFix" result="effect1_dropShadow_1_2"/>
<feBlend mode="normal" in="SourceGraphic" in2="effect1_dropShadow_1_2" result="shape"/>
</filter>
<clipPath id="clip0_1_2">
<rect width="500" height="500" fill="white" transform="translate(4)"/>
</clipPath>
</defs>
</svg>
