<svg width="24" height="24" viewBox="0 0 24 24" fill="none" xmlns="http://www.w3.org/2000/svg">
<path fill-rule="evenodd" clip-rule="evenodd" d="M13.5 6.75H5.84531C5.5935 7.60162 5.13263 8.37671 4.50467 9.00467C3.87671 9.63263 3.10162 10.0935 2.25 10.3453V13.6547C3.10162 13.9065 3.87671 14.3674 4.50467 14.9953C5.13263 15.6233 5.5935 16.3984 5.84531 17.25H18.1547C18.4065 16.3984 18.8674 15.6233 19.4953 14.9953C20.1233 14.3674 20.8984 13.9065 21.75 13.6547V11.25H23.25V18C23.25 18.1989 23.171 18.3897 23.0303 18.5303C22.8897 18.671 22.6989 18.75 22.5 18.75H1.5C1.30109 18.75 1.11032 18.671 0.96967 18.5303C0.829018 18.3897 0.75 18.1989 0.75 18V6C0.75 5.80109 0.829018 5.61032 0.96967 5.46967C1.11032 5.32902 1.30109 5.25 1.5 5.25H13.5V6.75ZM9.91661 8.88199C10.5333 8.46993 11.2583 8.25 12 8.25C12.9946 8.25 13.9484 8.64509 14.6517 9.34835C15.3549 10.0516 15.75 11.0054 15.75 12C15.75 12.7417 15.5301 13.4667 15.118 14.0834C14.706 14.7001 14.1203 15.1807 13.4351 15.4645C12.7498 15.7484 11.9958 15.8226 11.2684 15.6779C10.541 15.5333 9.8728 15.1761 9.34835 14.6517C8.8239 14.1272 8.46675 13.459 8.32205 12.7316C8.17736 12.0042 8.25162 11.2502 8.53545 10.5649C8.81928 9.87971 9.29993 9.29404 9.91661 8.88199ZM10.75 13.8708C11.12 14.118 11.555 14.25 12 14.25C12.5967 14.25 13.169 14.0129 13.591 13.591C14.0129 13.169 14.25 12.5967 14.25 12C14.25 11.555 14.118 11.12 13.8708 10.75C13.6236 10.38 13.2722 10.0916 12.861 9.92127C12.4499 9.75097 11.9975 9.70642 11.561 9.79323C11.1246 9.88005 10.7237 10.0943 10.409 10.409C10.0943 10.7237 9.88005 11.1246 9.79323 11.561C9.70642 11.9975 9.75097 12.4499 9.92127 12.861C10.0916 13.2722 10.38 13.6236 10.75 13.8708ZM2.25 8.75344C3.14959 8.36662 3.86662 7.64959 4.25344 6.75H2.25V8.75344ZM4.25344 17.25C3.86662 16.3504 3.14959 15.6334 2.25 15.2466V17.25H4.25344ZM21.75 15.2466C20.8504 15.6334 20.1334 16.3504 19.7466 17.25H21.75V15.2466Z" fill="#D92323"/>
<path fill-rule="evenodd" clip-rule="evenodd" d="M23.25 6.38756L19.125 2.25L15 6.38756L16.0222 7.41285L18.4022 5.02554V11.25H19.8478V5.02556L22.2278 7.41285L23.25 6.38756Z" fill="#D92323"/>
</svg>
