<svg xmlns="http://www.w3.org/2000/svg" width="803.668" height="201.401" viewBox="0 0 803.668 201.401">
  <g id="logo-menu" transform="translate(-14460.128 2626.972)">
    <path id="Caminho_2222" data-name="Caminho 2222" d="M6776.218,12589.843l-526.219-.9c1.052,3.547,2.021,9.209,9.789,18.26,49.383,53.629,236.674,34.549,249.729,33.174,88.616-9.177,172.346-24.895,258.9-47.846,1.226-.325,2.658-.717,3.931-1.058l2.982-.783C6776.592,12590.064,6775.786,12590.889,6776.218,12589.843Z" transform="translate(8429.825 -15215.857)" fill="#fff" fill-rule="evenodd"/>
    <path id="Caminho_2221" data-name="Caminho 2221" d="M610.917,12612.145c-10.053,11.766-11.866,20.512-14.881,43.475-1.213,11.01-7.975,60.982-7.793,74.7,4.013,36.521,35.142,57.986,67.669,59.783,17.467-.285,53.089.064,58.334,0,19.7.01,465.251.846,582.084-.248,37.485.273,60.171-20.9,61.173-21.744,8.6-7.221,18.054-16.566,22.552-28.328,3.672-9.6,4.479-24.793,5.7-35.992,2.4-22.037,3.672-37.53,5.894-59.4,2.438-23.994-13.079-39.434-25.016-47.557-7.279-4.955-22.007-6.8-32.353-6.847-.951,0-18.771,1.857-24.268,3.373-101.8,28.082-224.344,48.738-331.866,55.466-42.168,2.637-85.048,3.836-127.16.166-53.28-4.644-103.647-11.943-147.859-41.194-7.42-4.971-16.137-12.835-22.417-18.2C656.792,12587.652,630.517,12589.512,610.917,12612.145Z" transform="translate(13871.889 -15215.984)" fill="#fff" fill-rule="evenodd"/>
    <path id="Caminho_2157" data-name="Caminho 2157" d="M648.671,12580.109c-19.451,1.318-33.323,12.43-41.056,23.107-11.188,15.448-10.931,28.879-13.576,50.391-1.181,9.609-2.307,19.011-3.446,28.414-1.293,10.677-2.527,17.186-2.349,29.155,3.91,31.872,28.132,45.859,59.825,47.428,0,0,11.875.055,16.986,0,21.325.011,44.716.068,66.041.086l511.524.626q15.924.01,31.849.035c11.588,0,18.794.395,29.834-2.189a84.352,84.352,0,0,0,32.656-15.582c8.375-6.3,17.058-16.22,21.441-26.482,3.577-8.378,3.916-17.2,5.106-26.977,2.342-19.232,4.674-38.139,6.839-57.227,2.375-20.939-8.614-36.171-20.245-43.262a46.129,46.129,0,0,0-24.951-6.826c-5.617-.022-19.86,4.207-26.275,5.791-99.189,24.508-225.956,47.583-330.722,53.455-41.087,2.3-82.868,3.348-123.9.145-51.914-4.053-108.8-13.61-152.287-39.711a193.375,193.375,0,0,1-18.953-13.175c-1.9-1.458-8.049-7.153-8.713-7.265-2.339-.4-12.89-.123-15.629.063Z" transform="translate(13882.774 -15197.608)" fill="#ee3537" fill-rule="evenodd"/>
    <path id="Caminho_2158" data-name="Caminho 2158" d="M1490.585,14320.572a48.863,48.863,0,0,0-6.669,12.016c-2.792,7.453-2.07,8.506-3.01,15.3-3.057-3.34-3.4-5.192-8.954-9.975-2.026-1.744-8.407-7.111-9.133-10.012-1.337-5.342,5.071-8.26,9.814-9.051,6.677-1.115,11.2-.062,17.233,1.16.781-.576,2.429-10.873,2.609-11.773.5-2.51,2.4-10.324,2.289-12.215-28.071-6.754-66.63-2.307-73.043,22.526-4.855,18.8,11.659,24.579,17.289,31.532,1.792,2.213,4.094,4.775,2.1,8.688-4.412,8.652-23.22,5.046-29.488,2.126-.9-8.589-2-11.654-6.51-16.8a63.41,63.41,0,0,0-5.7-5.924c-2.094-1.872-4.048-3.542-6.049-5.588-1.552-1.588-4.7-4.095-3.228-7.938,3.977-10.361,27.029-4.747,27.049-4.747l4.795-23.99c-11.84-1.931-12.727-2.926-26.277-2.715-8.614.135-17.293,1.284-24.754,3.979-13.423,4.849-26.459,15.792-22.027,34.175.456.587,1.1,2.473,1.624,3.34,6.343,10.563,24.754,16.948,16.359,25.752-5.575,5.848-18.249,3.332-24.875,1.6.271-1.105,2.318-4.532,3.058-6.246,5.462-12.666,2.969-20.6,3.608-23.871-1.3-2-.863-16.764-21.144-30.185-31.222-20.663-85.512-6.171-99.353,29.1-.587,1.5-1.1,3.669-1.689,4.916-.294-6.946,3.269-15.883-.129-26.424-5.437-16.865-26.145-18.838-40.962-15.977a42.569,42.569,0,0,0-15.778,6.346c-1.493.984-3.084,2.51-4.408,3.183.077-2.279,1.087-7.174.781-9.059l-38.789-.06c-.818,4.046-2.379,20.7-3.1,27.129l-.572,3.686a1.6,1.6,0,0,1-.095.227c-2.987-13.842-11.29-23.426-23.242-27.542-11.744-4.044-22.336-3.651-34.637-3.669-3.5,0-9.47-.366-12.672.078l-10.089,80.593-37.6.032,2.81-23.17,30.922-.028c.3-2.849,2.212-15.2,1.892-16.843l-30.568-.027,2.842-23.739,23.272-.1c.314-3.425,2.239-14.658,1.9-16.806-8.3-.382-21.426-.056-30.594-.06l-5.262-.006c-6.833-.01-4.811-2.078-6.758,13.684-.321,2.6-1.129,11.575-1.795,13.375-.489-7.473-1.386-11.7-5.241-16.7-8.645-11.226-19.975-10.4-33.842-10.407-3.425,0-20.008-.429-21.943.138-1.685,10.063-2.49,20.738-3.885,30.816-.47,3.395-4.207,36.763-5.093,38.063-2.273,3.334-10.634,8.953-15.179,10.842-9.472,3.938-20.36,3.713-28.1-1.547-16.441-11.174-16.879-33.278-5.5-48.119,9.7-12.656,27.389-20.287,41.978-11.919,1.471.843,4.5,3.2,5.185,3.444l2.49-19.828c-2.853-1.965-11.382-3.542-15.654-3.779a54.084,54.084,0,0,0-17.648,1.924c-10.594,3.018-18.391,8.981-24.457,14.571-12.223,11.262-23.35,33.829-14.38,57.347a44.948,44.948,0,0,0,17.823,21.23c23.618,14.117,54.18,2.779,68.206-17.443,4.895-7.057,2.9-5.777,4.526-15.115.912.791,13.444,23.308,15.853,27.617.93,1.662,1.707,3.023,2.6,4.595l2.3,4.075c.409.565.092.23.557.614.814.388,92.335.213,93.067.215,14.585.026,28.423-.708,39.6-6.957a52.471,52.471,0,0,0,17.964-16.929c.788-1.163,1.527-2.385,2.217-3.6l1.5-2.9a2.738,2.738,0,0,1,.348-.547c.349-.451.12-.2.493-.521l-3.391,31.061c4.206.133,38.115.342,39.7-.064,2.02-15.186,3.333-30.39,5.135-45.565.986-8.3,1.533-14.473,6.959-18.251a16,16,0,0,1,10.51-2.23c3.926.418,6.378,2.01,7.368,5.395,2.542,8.693-5.4,38.059-2.147,46.154,2.292,5.705,7.629,9.277,14,11.474,5.652,1.948,15.8,3.6,22.353,3.185l4.816-42.777c-.537,3.885,2.3,13.607,4.649,17.773,17.127,30.418,61.825,33.346,89.533,17.121,1.734-1.016,2.055-.313,3.97.445a125.1,125.1,0,0,0,22.257,6.536c12.83,2.413,29.137,2.884,41.514-.746a44.1,44.1,0,0,0,8.158-3.157c1.344-.705,2.536-1.865,4.068-1.412,1.382.408,2.916,1.088,4.319,1.549,21.436,7.024,56.737,10.465,73.57-6.53,6.629-6.692,6.277-13,7.322-15.563,1.832,2.1,1.35,4.928,10.4,13.877,13.488,13.342,36.931,17.31,56.494,13.6,43.332-8.211,69.779-51.525,41.521-81.73-6.858-7.331-18.735-13.891-32.712-16.074-20.316-3.176-41.9,2.623-57.245,14.439C1498.773,14311.351,1493.34,14316.421,1490.585,14320.572Z" transform="translate(13631.927 -16841.852)" fill="#fefefe" fill-rule="evenodd"/>
    <path id="Caminho_2159" data-name="Caminho 2159" d="M6747.98,12589.529l-497.98-.59c1,2.318,6.77,7.247,8.85,8.807,46.732,35.036,185.423,28.465,236.742,24.8a2218.413,2218.413,0,0,0,245.008-31.259c1.16-.212,2.515-.468,3.72-.69l2.822-.513C6748.334,12589.674,6747.572,12590.213,6747.98,12589.529Z" transform="translate(8443.969 -15206.346)" fill="#1081c4" fill-rule="evenodd"/>
    <path id="Caminho_2160" data-name="Caminho 2160" d="M6217.649,14836.316c12.721.079,21.306-.24,30.4-6.326a35.573,35.573,0,0,0,14.756-22.079c2.4-11.509-1.171-22.327-7.3-27.97-7.342-6.765-16.907-7.534-29.441-7.541-.862.261-.721,1.959-.934,3.658C6223.942,14785.508,6217.711,14832.826,6217.649,14836.316Z" transform="translate(8475.045 -17303.818)" fill="#ee3537" fill-rule="evenodd"/>
    <path id="Caminho_2161" data-name="Caminho 2161" d="M17963.6,15141.018c-10.383,1.082-19.713,8.314-20.85,17.988-1.35,11.491,9.443,18.744,20.889,17.783,10.047-.845,19.85-8.38,20.928-17.843C17985.891,15147.346,17975.182,15139.813,17963.6,15141.018Z" transform="translate(-2788.196 -17657.799)" fill="#ee3537" fill-rule="evenodd"/>
    <path id="Caminho_2162" data-name="Caminho 2162" d="M11450.92,15130.76c-9.864,1.431-19.02,8.982-19.24,19.3-.23,10.873,10.582,17.523,22.3,15.985,9.825-1.29,19.336-8.993,19.391-19.3C11473.43,15136.014,11462.65,15129.058,11450.92,15130.76Z" transform="translate(3466.354 -17647.82)" fill="#ee3537" fill-rule="evenodd"/>
    <path id="Caminho_2163" data-name="Caminho 2163" d="M3274.92,14797.111c11.967.729,27.252,1.025,30.292-13.2,2.511-11.747-5.632-16.483-15.66-16.52-2.113-.009-9.4-.281-10.908.151Z" transform="translate(11301.886 -17298.924)" fill="#ee3537" fill-rule="evenodd"/>
    <path id="Caminho_2164" data-name="Caminho 2164" d="M3772.939,15230.7c1.005,2.395,3.7,6.326,5.129,8.718,1.773,2.962,3.428,5.7,5.2,8.651l10.369,17.164,7.943-62.324c-.9,1.334-1.273,3.529-1.909,5.205a34.678,34.678,0,0,1-21.334,20.785C3776.725,15229.48,3774.146,15229.854,3772.939,15230.7Z" transform="translate(10823.479 -17717.375)" fill="#ee3537" fill-rule="evenodd"/>
    <path id="Caminho_2165" data-name="Caminho 2165" d="M13366.4,15304.18c-.639,3.273,1.854,11.205-3.607,23.871-.739,1.714-2.786,5.142-3.058,6.246,6.626,1.736,19.3,4.252,24.876-1.6,8.395-8.8-10.018-15.189-16.359-25.752-.521-.867-1.168-2.754-1.625-3.34Z" transform="translate(1614.221 -17814.109)" fill="#ee3537" fill-rule="evenodd"/>
    <path id="Caminho_2166" data-name="Caminho 2166" d="M16450.223,14976.46c-1.023-.047-.434.064-.719-.558-6.033-1.224-10.557-2.275-17.232-1.161-4.744.792-11.152,3.71-9.814,9.052.727,2.9,7.105,8.268,9.133,10.011,5.555,4.782,5.9,6.634,8.953,9.976.941-6.8.219-7.851,3.012-15.3A48.867,48.867,0,0,1,16450.223,14976.46Z" transform="translate(-1327.711 -17497.738)" fill="#ee3537" fill-rule="evenodd"/>
  </g>
</svg>
