<svg width="24" height="24" viewBox="0 0 24 24" fill="none" xmlns="http://www.w3.org/2000/svg">
<path d="M15.363 17.4376C15.8265 17.901 16.3831 18.2351 16.9898 18.4244L13.8674 21.5468C12.8514 22.5628 11.1898 22.5628 10.1738 21.5468L7.11548 18.4885C7.79038 18.3116 8.41024 17.9591 8.91812 17.4512L12.1474 14.222L15.363 17.4376Z" stroke="#0069BF" stroke-width="1.5"/>
<path d="M10.1475 2.45403L10.1477 2.45387C11.1637 1.4379 12.8253 1.4379 13.8412 2.45387L16.9689 5.58156C16.3706 5.77191 15.8216 6.1034 15.3636 6.56122C15.3633 6.56143 15.3631 6.56165 15.3629 6.56187L12.1338 9.77772L8.90438 6.54827C8.39393 6.03781 7.77037 5.6843 7.09148 5.50827L10.1475 2.45403Z" stroke="#0069BF" stroke-width="1.5"/>
<path d="M17.1052 8.31669L17.1052 8.31661L13.7923 11.6283C13.7922 11.6283 13.7922 11.6283 13.7922 11.6284C13.6441 11.7764 13.4793 11.9013 13.3037 12.0023C13.4796 12.101 13.6439 12.224 13.791 12.3713L17.1052 8.31669ZM17.1052 8.31669L17.1145 8.30707C17.3801 8.03196 17.77 7.86814 18.177 7.86814H19.2544L21.546 10.1598C22.5619 11.1757 22.5619 12.8233 21.5441 13.8393L21.5436 13.8398L19.2519 16.1314H18.1745C17.7868 16.1314 17.3896 15.9699 17.1028 15.6831L13.7916 12.3719L17.1052 8.31669ZM10.9676 11.999C10.7893 12.0983 10.6227 12.2224 10.4739 12.3713L7.14851 15.6967L7.14843 15.6966L7.13924 15.7061C6.87366 15.9812 6.48375 16.145 6.07678 16.145H4.74579L2.45412 13.8534C1.43815 12.8374 1.43815 11.1758 2.45412 10.1598L4.7594 7.85453H6.09039C6.47814 7.85453 6.87529 8.01607 7.16212 8.3029L10.4875 11.6283C10.6337 11.7745 10.7952 11.8984 10.9676 11.999Z" stroke="#0069BF" stroke-width="1.5"/>
</svg>
