<svg width="16" height="20" viewBox="0 0 16 20" fill="none" xmlns="http://www.w3.org/2000/svg">
<path d="M4.25 4.75C4.25 4.55109 4.32902 4.36032 4.46967 4.21967C4.61032 4.07902 4.80109 4 5 4H11C11.1989 4 11.3897 4.07902 11.5303 4.21967C11.671 4.36032 11.75 4.55109 11.75 4.75C11.75 4.94891 11.671 5.13968 11.5303 5.28033C11.3897 5.42098 11.1989 5.5 11 5.5H5C4.80109 5.5 4.61032 5.42098 4.46967 5.28033C4.32902 5.13968 4.25 4.94891 4.25 4.75ZM5 8.5H11C11.1989 8.5 11.3897 8.42098 11.5303 8.28033C11.671 8.13968 11.75 7.94891 11.75 7.75C11.75 7.55109 11.671 7.36032 11.5303 7.21967C11.3897 7.07902 11.1989 7 11 7H5C4.80109 7 4.61032 7.07902 4.46967 7.21967C4.32902 7.36032 4.25 7.55109 4.25 7.75C4.25 7.94891 4.32902 8.13968 4.46967 8.28033C4.61032 8.42098 4.80109 8.5 5 8.5ZM15.5 1.75V18.25C15.5 18.6478 15.342 19.0294 15.0607 19.3107C14.7794 19.592 14.3978 19.75 14 19.75H2C1.60218 19.75 1.22064 19.592 0.93934 19.3107C0.658035 19.0294 0.5 18.6478 0.5 18.25V1.75C0.5 1.35218 0.658035 0.970644 0.93934 0.68934C1.22064 0.408035 1.60218 0.25 2 0.25H14C14.3978 0.25 14.7794 0.408035 15.0607 0.68934C15.342 0.970644 15.5 1.35218 15.5 1.75ZM14 1.75H2V18.25H14V1.75ZM8 13.75C7.7775 13.75 7.55999 13.816 7.37498 13.9396C7.18998 14.0632 7.04578 14.2389 6.96064 14.4445C6.87549 14.65 6.85321 14.8762 6.89662 15.0945C6.94002 15.3127 7.04717 15.5132 7.2045 15.6705C7.36184 15.8278 7.56229 15.935 7.78052 15.9784C7.99875 16.0218 8.22495 15.9995 8.43052 15.9144C8.63609 15.8292 8.81179 15.685 8.9354 15.5C9.05902 15.315 9.125 15.0975 9.125 14.875C9.125 14.5766 9.00647 14.2905 8.79549 14.0795C8.58452 13.8685 8.29837 13.75 8 13.75Z" fill="#0069BF"/>
</svg>
