<svg width="48" height="48" viewBox="0 0 48 48" fill="none" xmlns="http://www.w3.org/2000/svg">
<path fill-rule="evenodd" clip-rule="evenodd" d="M2.4375 13.1719V7.78125C2.4375 4.83469 4.83473 2.4375 7.78125 2.4375H13.1719C13.845 2.4375 14.3906 1.89183 14.3906 1.21875C14.3906 0.545672 13.845 0 13.1719 0H7.78125C3.49069 0 0 3.49064 0 7.78125V13.1719C0 13.845 0.545672 14.3906 1.21875 14.3906C1.89183 14.3906 2.4375 13.845 2.4375 13.1719ZM13.1719 45.5622C13.845 45.5622 14.3906 46.1078 14.3906 46.7809C14.3906 47.454 13.845 47.9997 13.1719 47.9997H7.78125C3.49069 47.9997 0 44.509 0 40.2184V34.8278C0 34.1547 0.545672 33.609 1.21875 33.609C1.89183 33.609 2.4375 34.1547 2.4375 34.8278V40.2184C2.4375 43.1649 4.83473 45.5622 7.78125 45.5622H13.1719ZM47.9997 34.8278V40.2184C47.9997 44.509 44.509 47.9997 40.2184 47.9997H34.8278C34.1547 47.9997 33.609 47.454 33.609 46.7809C33.609 46.1078 34.1547 45.5622 34.8278 45.5622H40.2184C43.1649 45.5622 45.5622 43.1649 45.5622 40.2184V34.8278C45.5622 34.1547 46.1078 33.609 46.7809 33.609C47.454 33.609 47.9997 34.1547 47.9997 34.8278ZM47.9997 7.78125V13.1719C47.9997 13.845 47.454 14.3906 46.7809 14.3906C46.1078 14.3906 45.5622 13.845 45.5622 13.1719V7.78125C45.5622 4.83469 43.1649 2.4375 40.2184 2.4375H34.8278C34.1547 2.4375 33.609 1.89183 33.609 1.21875C33.609 0.545672 34.1547 0 34.8278 0H40.2184C44.509 0 47.9997 3.49064 47.9997 7.78125ZM32.4107 35.4771C32.9242 35.0028 32.9559 34.2021 32.4817 33.6886C32.0073 33.1752 31.2067 33.1434 30.6932 33.6177C28.8661 35.3053 26.4891 36.2348 24 36.2348C21.5109 36.2348 19.1339 35.3053 17.3068 33.6177C16.7933 33.1434 15.9927 33.1752 15.5183 33.6886C15.0441 34.2021 15.0758 35.0028 15.5893 35.4771C17.8854 37.598 20.8724 38.766 24 38.766C27.1276 38.766 30.1146 37.598 32.4107 35.4771ZM26.5312 18.0929V27.0929C26.5312 28.8764 25.0803 30.3273 23.2968 30.3273H22.2656C21.5666 30.3273 21 29.7607 21 29.0617C21 28.3627 21.5666 27.796 22.2656 27.796H23.2968C23.6845 27.796 24 27.4806 24 27.0929V18.0929C24 17.3939 24.5666 16.8273 25.2656 16.8273C25.9646 16.8273 26.5312 17.3939 26.5312 18.0929ZM35.2498 21.632V18.0226C35.2498 17.3625 34.7146 16.8273 34.0545 16.8273C33.3943 16.8273 32.8592 17.3625 32.8592 18.0226V21.632C32.8592 22.2921 33.3943 22.8273 34.0545 22.8273C34.7146 22.8273 35.2498 22.2921 35.2498 21.632ZM13.031 21.632C13.031 22.2921 13.5661 22.8273 14.2263 22.8273C14.8864 22.8273 15.4216 22.2921 15.4216 21.632V18.0226C15.4216 17.3625 14.8864 16.8273 14.2263 16.8273C13.5661 16.8273 13.031 17.3625 13.031 18.0226V21.632Z" fill="#0069BF"/>
</svg>
