<svg width="20" height="18" viewBox="0 0 20 18" fill="none" xmlns="http://www.w3.org/2000/svg">
<path d="M19.75 1.5V5.25C19.75 5.44891 19.671 5.63968 19.5303 5.78033C19.3897 5.92098 19.1989 6 19 6C18.8011 6 18.6103 5.92098 18.4697 5.78033C18.329 5.63968 18.25 5.44891 18.25 5.25V2.25H15.25C15.0511 2.25 14.8603 2.17098 14.7197 2.03033C14.579 1.88968 14.5 1.69891 14.5 1.5C14.5 1.30109 14.579 1.11032 14.7197 0.96967C14.8603 0.829018 15.0511 0.75 15.25 0.75H19C19.1989 0.75 19.3897 0.829018 19.5303 0.96967C19.671 1.11032 19.75 1.30109 19.75 1.5ZM4.75 15.75H1.75V12.75C1.75 12.5511 1.67098 12.3603 1.53033 12.2197C1.38968 12.079 1.19891 12 1 12C0.801088 12 0.610322 12.079 0.46967 12.2197C0.329018 12.3603 0.25 12.5511 0.25 12.75V16.5C0.25 16.6989 0.329018 16.8897 0.46967 17.0303C0.610322 17.171 0.801088 17.25 1 17.25H4.75C4.94891 17.25 5.13968 17.171 5.28033 17.0303C5.42098 16.8897 5.5 16.6989 5.5 16.5C5.5 16.3011 5.42098 16.1103 5.28033 15.9697C5.13968 15.829 4.94891 15.75 4.75 15.75ZM19 12C18.8011 12 18.6103 12.079 18.4697 12.2197C18.329 12.3603 18.25 12.5511 18.25 12.75V15.75H15.25C15.0511 15.75 14.8603 15.829 14.7197 15.9697C14.579 16.1103 14.5 16.3011 14.5 16.5C14.5 16.6989 14.579 16.8897 14.7197 17.0303C14.8603 17.171 15.0511 17.25 15.25 17.25H19C19.1989 17.25 19.3897 17.171 19.5303 17.0303C19.671 16.8897 19.75 16.6989 19.75 16.5V12.75C19.75 12.5511 19.671 12.3603 19.5303 12.2197C19.3897 12.079 19.1989 12 19 12ZM1 6C1.19891 6 1.38968 5.92098 1.53033 5.78033C1.67098 5.63968 1.75 5.44891 1.75 5.25V2.25H4.75C4.94891 2.25 5.13968 2.17098 5.28033 2.03033C5.42098 1.88968 5.5 1.69891 5.5 1.5C5.5 1.30109 5.42098 1.11032 5.28033 0.96967C5.13968 0.829018 4.94891 0.75 4.75 0.75H1C0.801088 0.75 0.610322 0.829018 0.46967 0.96967C0.329018 1.11032 0.25 1.30109 0.25 1.5V5.25C0.25 5.44891 0.329018 5.63968 0.46967 5.78033C0.610322 5.92098 0.801088 6 1 6ZM5.5 4.5C5.30109 4.5 5.11032 4.57902 4.96967 4.71967C4.82902 4.86032 4.75 5.05109 4.75 5.25V12.75C4.75 12.9489 4.82902 13.1397 4.96967 13.2803C5.11032 13.421 5.30109 13.5 5.5 13.5C5.69891 13.5 5.88968 13.421 6.03033 13.2803C6.17098 13.1397 6.25 12.9489 6.25 12.75V5.25C6.25 5.05109 6.17098 4.86032 6.03033 4.71967C5.88968 4.57902 5.69891 4.5 5.5 4.5ZM15.25 12.75V5.25C15.25 5.05109 15.171 4.86032 15.0303 4.71967C14.8897 4.57902 14.6989 4.5 14.5 4.5C14.3011 4.5 14.1103 4.57902 13.9697 4.71967C13.829 4.86032 13.75 5.05109 13.75 5.25V12.75C13.75 12.9489 13.829 13.1397 13.9697 13.2803C14.1103 13.421 14.3011 13.5 14.5 13.5C14.6989 13.5 14.8897 13.421 15.0303 13.2803C15.171 13.1397 15.25 12.9489 15.25 12.75ZM11.5 4.5C11.3011 4.5 11.1103 4.57902 10.9697 4.71967C10.829 4.86032 10.75 5.05109 10.75 5.25V12.75C10.75 12.9489 10.829 13.1397 10.9697 13.2803C11.1103 13.421 11.3011 13.5 11.5 13.5C11.6989 13.5 11.8897 13.421 12.0303 13.2803C12.171 13.1397 12.25 12.9489 12.25 12.75V5.25C12.25 5.05109 12.171 4.86032 12.0303 4.71967C11.8897 4.57902 11.6989 4.5 11.5 4.5ZM8.5 4.5C8.30109 4.5 8.11032 4.57902 7.96967 4.71967C7.82902 4.86032 7.75 5.05109 7.75 5.25V12.75C7.75 12.9489 7.82902 13.1397 7.96967 13.2803C8.11032 13.421 8.30109 13.5 8.5 13.5C8.69891 13.5 8.88968 13.421 9.03033 13.2803C9.17098 13.1397 9.25 12.9489 9.25 12.75V5.25C9.25 5.05109 9.17098 4.86032 9.03033 4.71967C8.88968 4.57902 8.69891 4.5 8.5 4.5Z" fill="#0069BF"/>
</svg>
