<svg width="20" height="18" viewBox="0 0 20 18" fill="none" xmlns="http://www.w3.org/2000/svg">
<path d="M19 5.25025H14.4437L15.2378 0.884317C15.2697 0.690199 15.2241 0.491318 15.1107 0.330538C14.9974 0.169757 14.8254 0.0599499 14.6318 0.0247808C14.4383 -0.0103882 14.2386 0.031897 14.076 0.142523C13.9133 0.25315 13.8006 0.42326 13.7622 0.616192L12.9184 5.25025H8.44375L9.23781 0.884317C9.26971 0.690199 9.22407 0.491318 9.11071 0.330538C8.99736 0.169757 8.82537 0.0599499 8.63182 0.0247808C8.43827 -0.0103882 8.23865 0.031897 8.07598 0.142523C7.91331 0.25315 7.80062 0.42326 7.76219 0.616192L6.91937 5.25025H2.5C2.30109 5.25025 2.11032 5.32927 1.96967 5.46992C1.82902 5.61058 1.75 5.80134 1.75 6.00025C1.75 6.19917 1.82902 6.38993 1.96967 6.53058C2.11032 6.67124 2.30109 6.75025 2.5 6.75025H6.64656L5.82812 11.2503H1C0.801088 11.2503 0.610322 11.3293 0.46967 11.4699C0.329018 11.6106 0.25 11.8013 0.25 12.0003C0.25 12.1992 0.329018 12.3899 0.46967 12.5306C0.610322 12.6712 0.801088 12.7503 1 12.7503H5.55625L4.76219 17.1162C4.72666 17.3119 4.77031 17.5136 4.88353 17.6771C4.99675 17.8406 5.17027 17.9525 5.36594 17.9881C5.41015 17.9962 5.45503 18.0003 5.5 18.0003C5.67548 18 5.84532 17.9382 5.97996 17.8257C6.11459 17.7132 6.20551 17.557 6.23688 17.3843L7.08063 12.7503H11.5563L10.7622 17.1162C10.7267 17.3119 10.7703 17.5136 10.8835 17.6771C10.9967 17.8406 11.1703 17.9525 11.3659 17.9881C11.4102 17.9962 11.455 18.0003 11.5 18.0003C11.6755 18 11.8453 17.9382 11.98 17.8257C12.1146 17.7132 12.2055 17.557 12.2369 17.3843L13.0806 12.7503H17.5C17.6989 12.7503 17.8897 12.6712 18.0303 12.5306C18.171 12.3899 18.25 12.1992 18.25 12.0003C18.25 11.8013 18.171 11.6106 18.0303 11.4699C17.8897 11.3293 17.6989 11.2503 17.5 11.2503H13.3534L14.1719 6.75025H19C19.1989 6.75025 19.3897 6.67124 19.5303 6.53058C19.671 6.38993 19.75 6.19917 19.75 6.00025C19.75 5.80134 19.671 5.61058 19.5303 5.46992C19.3897 5.32927 19.1989 5.25025 19 5.25025ZM11.8281 11.2503H7.35344L8.17188 6.75025H12.6466L11.8281 11.2503Z" fill="#0069BF"/>
</svg>
