<svg width="205" height="205" viewBox="0 0 205 205" fill="none" xmlns="http://www.w3.org/2000/svg">
<path fill-rule="evenodd" clip-rule="evenodd" d="M52 2.5C52 1.11929 50.8807 0 49.5 0L17 0C7.61116 0 0 7.61116 0 17V49.5C0 50.8807 1.11929 52 2.5 52V52C3.88071 52 5 50.8807 5 49.5V17C5 10.3726 10.3726 5 17 5H49.5C50.8807 5 52 3.88071 52 2.5V2.5ZM155.5 5C154.119 5 153 3.88071 153 2.5V2.5C153 1.11929 154.119 0 155.5 0L188 0C197.389 0 205 7.61116 205 17V49.5C205 50.8807 203.881 52 202.5 52V52C201.119 52 200 50.8807 200 49.5V17C200 10.3726 194.627 5 188 5H155.5ZM153 202.5C153 201.119 154.119 200 155.5 200H188C194.627 200 200 194.627 200 188V155.5C200 154.119 201.119 153 202.5 153V153C203.881 153 205 154.119 205 155.5V188C205 197.389 197.389 205 188 205H155.5C154.119 205 153 203.881 153 202.5V202.5ZM2.5 153C3.88071 153 5 154.119 5 155.5V188C5 194.627 10.3726 200 17 200H49.5C50.8807 200 52 201.119 52 202.5V202.5C52 203.881 50.8807 205 49.5 205H17C7.61116 205 0 197.389 0 188V155.5C0 154.119 1.11929 153 2.5 153V153Z" fill="white"/>
</svg>
